<?xml version="1.0" encoding="UTF-8" standalone="no"?>

<svg xmlns="http://www.w3.org/2000/svg" width="860" height="520">
<rect x="0" y="0" width="100%" height="100%" fill="#ffffff"/>
<text x="430.0" y="40" text-anchor="middle" font-family="sans-serif" font-size="20" font-weight="bold" fill="#2c3e50">F1 Score</text>
<line x1="90" y1="60" x2="90" y2="400" stroke="#95a5a6" stroke-width="1"/>
<line x1="90" y1="400" x2="830" y2="400" stroke="#95a5a6" stroke-width="1"/>
<line x1="90" y1="400.0" x2="830" y2="400.0" stroke="#ecf0f1" stroke-width="1"/>
<text x="80" y="404.0" text-anchor="end" font-family="sans-serif" font-size="12" fill="#2c3e50">0.000</text>
<line x1="90" y1="332.0" x2="830" y2="332.0" stroke="#ecf0f1" stroke-width="1"/>
<text x="80" y="336.0" text-anchor="end" font-family="sans-serif" font-size="12" fill="#2c3e50">0.200</text>
<line x1="90" y1="264.0" x2="830" y2="264.0" stroke="#ecf0f1" stroke-width="1"/>
<text x="80" y="268.0" text-anchor="end" font-family="sans-serif" font-size="12" fill="#2c3e50">0.400</text>
<line x1="90" y1="196.0" x2="830" y2="196.0" stroke="#ecf0f1" stroke-width="1"/>
<text x="80" y="200.0" text-anchor="end" font-family="sans-serif" font-size="12" fill="#2c3e50">0.600</text>
<line x1="90" y1="128.0" x2="830" y2="128.0" stroke="#ecf0f1" stroke-width="1"/>
<text x="80" y="132.0" text-anchor="end" font-family="sans-serif" font-size="12" fill="#2c3e50">0.800</text>
<line x1="90" y1="60.0" x2="830" y2="60.0" stroke="#ecf0f1" stroke-width="1"/>
<text x="80" y="64.0" text-anchor="end" font-family="sans-serif" font-size="12" fill="#2c3e50">1.000</text>
<text x="30" y="230.0" transform="rotate(-90 30,230.0)" text-anchor="middle" font-family="sans-serif" font-size="12" font-weight="bold" fill="#2c3e50">Score</text>
<rect x="149.2" y="67.62468962011457" width="111.0" height="332.37531037988543" fill="#667eea" stroke="#ffffff" stroke-width="1.5"/>
<text x="204.7" y="61.624689620114566" text-anchor="middle" font-family="sans-serif" font-size="12" font-weight="bold" fill="#2c3e50">0.978</text>
<text x="204.7" y="414" transform="rotate(-30 204.7,414)" text-anchor="end" font-family="sans-serif" font-size="12" fill="#2c3e50">ZKP Framework</text>
<rect x="319.4" y="67.62468962011457" width="111.0" height="332.37531037988543" fill="#764ba2" stroke="#ffffff" stroke-width="1.5"/>
<text x="374.9" y="61.624689620114566" text-anchor="middle" font-family="sans-serif" font-size="12" font-weight="bold" fill="#2c3e50">0.978</text>
<text x="374.9" y="414" transform="rotate(-30 374.9,414)" text-anchor="end" font-family="sans-serif" font-size="12" fill="#2c3e50">Regex Baseline</text>
<rect x="489.59999999999997" y="132.6163517433041" width="111.0" height="267.3836482566959" fill="#f093fb" stroke="#ffffff" stroke-width="1.5"/>
<text x="545.0999999999999" y="126.61635174330411" text-anchor="middle" font-family="sans-serif" font-size="12" font-weight="bold" fill="#2c3e50">0.786</text>
<text x="545.0999999999999" y="414" transform="rotate(-30 545.0999999999999,414)" text-anchor="end" font-family="sans-serif" font-size="12" fill="#2c3e50">LLM Simulator</text>
<rect x="659.8" y="67.62468962011457" width="111.0" height="332.37531037988543" fill="#f5576c" stroke="#ffffff" stroke-width="1.5"/>
<text x="715.3" y="61.624689620114566" text-anchor="middle" font-family="sans-serif" font-size="12" font-weight="bold" fill="#2c3e50">0.978</text>
<text x="715.3" y="414" transform="rotate(-30 715.3,414)" text-anchor="end" font-family="sans-serif" font-size="12" fill="#2c3e50">Ensemble</text>
</svg>